<?xml version="1.0" encoding="UTF-8"?>
<svg id="Layer_1" xmlns="http://www.w3.org/2000/svg" version="1.1" viewBox="0 0 512 512">
  <!-- Generator: Adobe Illustrator 30.4.0, SVG Export Plug-In . SVG Version: 2.1.4 Build 226)  -->
  <defs>
    <style>
      .st0 {
        fill: #40160f;
      }

      .st1 {
        fill: #dfeed3;
      }

      .st2 {
        fill: #93211e;
      }

      .st3 {
        fill: #341611;
      }

      .st4 {
        fill: #e52526;
      }
    </style>
  </defs>
  <path class="st4" d="M512,112v288c0,45.67-27.33,84.95-66.52,102.38-13.9,6.18-29.29,9.62-45.48,9.62H112c-14.88,0-29.08-2.9-42.06-8.17C28.92,487.21,0,446.98,0,400V112C0,79.41,13.92,50.07,36.14,29.6,56.09,11.23,82.73,0,112,0h288c30.59,0,58.31,12.26,78.52,32.13,20.67,20.32,33.48,48.6,33.48,79.87Z"/>
  <g>
    <path class="st0" d="M155.48,131.66c-1.88.51-3.81.54-5.63.02-2.25-.65-3.93-2.73-4.89-6.04-.21-.74-.8-3.08-1.55-6.91-.87-4.43-1.9-9.15-3.28-13.94-.41-1.42-.82-2.69-1.23-3.8-.41-1.11-.78-2.22-1.09-3.32-.45-1.58-.79-3.27-.7-4.76.09-1.44.81-2.88,1.87-4.03,1.05-1.15,2.32-1.92,3.8-2.32,1.54-.42,3.23-.4,4.81.17,1.59.57,2.78,1.61,3.47,2.84.15.36.35.7.59,1.04.24.33.51.47.8.39.35-.09.66-.48.93-1.17.38-1,1.38-2.71,3.09-4.65,1.47-1.68,3.47-2.77,5.56-3.24,2.81-.64,5.81-.38,8.2.98,2.18,1.25,3.61,3.51,4.13,6.03.26,1.29.25,2.55-.05,3.79-.29,1.24-.94,2.29-1.93,3.18-1,.88-2.1,1.46-3.31,1.72-1.5.33-3,.38-4.48.16-1.48-.22-2.83-.19-4.05.1-1.68.4-2.73,1.24-3.15,2.5-.42,1.26-.46,2.56-.13,3.89.89,2.83,1.33,4.25,2.21,7.08.83,2.62,1.64,5.3,2.33,7.98,1.03,3.99.55,7.17-1.3,9.4-1.42,1.44-3.09,2.41-5.02,2.93Z"/>
    <path class="st0" d="M198.19,120.98c-4.28.71-7.6.51-10-.66-2.41-1.16-4.21-2.92-5.4-5.28-1.19-2.36-2.07-4.91-2.62-7.65-.35-1.77-.65-3.52-.87-5.24-.22-1.72-.53-3.54-.91-5.48-.21-1.07-.41-1.9-.59-2.48-.38-1.26-.7-2.57-.96-3.92-.4-1.99-.54-4.07-.28-6.06.22-1.69,1.07-3.22,2.39-4.44,1.32-1.23,2.91-2.07,4.76-2.51.25-.05.38-.07.63-.11,2.35-.42,4.72,0,6.65,1.36,1.89,1.32,3.06,3.5,3.48,6.1.36,2.22.22,4.63.03,6.91-.25,2.9-.03,5.26.18,6.55.38,2.33,1.21,3.94,2.47,4.85.51.25.99.34,1.45.27.57-.09,1.02-.38,1.35-.88.53-1.47.69-2.96.46-4.48-.12-.78-.18-1.17-.3-1.95-.4-2.66-.93-5.66-1.84-8.54-.53-1.69-1.08-3.49-1.36-5.28-.18-1.14-.21-2.26-.1-3.35.11-1.1.62-2.1,1.53-3.02,1.49-1.22,3.21-1.97,5.15-2.24,1.15-.16,2.27-.14,3.34.05,2.67.59,4.46,2.14,5.44,4.45.55,1.3,1.09,3.35,1.36,5.97.3,3,.4,6.11.48,9.14.06,2.42.13,4.77.32,6.92.31,3.54.4,6.81.07,9.64-.33,2.83-1.67,5.19-4,7.12-2.33,1.92-6.42,3.29-12.28,4.26Z"/>
    <path class="st0" d="M243.23,115.71c-6.09.38-11.02-.93-14.92-4.02-3.35-2.66-5.41-7.12-6.07-13.44-.28-2.62-.26-4.99.05-7.11.31-2.13.63-3.85.94-5.18.31-1.33.45-2.23.4-2.73-.04-.44-.42-.62-1.14-.55-.42.04-.92.15-1.5.32-.58.17-1.23.29-1.94.37-.77.08-1.51-.03-2.2-.34-1.25-.91-2-2.42-2.25-4.54-.29-2.5.45-4.63,1.94-6.34,1.14-1.32,2.73-2.28,4.55-2.39.65-.04,1.38.07,2.11.24.72.18,1.56.26,2.37.15.98-.14,1.78-.77,2.25-1.69.47-.92.82-1.89,1.05-2.9.45-1.96,1.37-4,2.78-6.08,2.55-3.5,6.26-5.42,11.05-5.68.38-.02.57-.03.95-.05,1.95-.11,3.61.16,4.96.79,1.35.63,2.05,1.6,2.1,2.92.02.44,0,.85-.04,1.24-.63,2.93-2.01,5.6-4.11,8-1.46,1.61-2.16,2.83-2.11,3.65.04.66.3.97.78.95.55-.03,1.3-.29,2.25-.77,1.43-.84,2.88-1.28,4.35-1.34.92-.04,1.86.23,2.51.81.69.63,1.07,1.94,1.12,3.58.08,2.58-.54,4.9-1.84,6.97-.91,1.35-2.37,2.06-4.39,2.15-1.01.05-1.98.01-2.91-.11-.93-.12-1.72-.16-2.38-.12-.36.02-.68.07-.98.14-.93.38-1.84,1.74-2.69,4.08-.86,2.34-1.2,4.6-1.05,6.79.11,1.59.64,2.95,1.56,3.77.98.87,2.22,1.26,3.37,1.19,1.09-.06,2.17-.47,3.23-1.16.82-.54,1.66-1.14,2.47-1.81.81-.67,1.68-1.3,2.62-1.88.94-.58,1.96-.9,3.07-.93.41-.01.85.03,1.31.12,1.52.28,2.67.95,3.45,2.01.78,1.05,1.2,2.29,1.2,3.63.02,3.56-1.18,6.98-3.34,10.12-3.08,4.42-8.02,6.75-14.94,7.18Z"/>
    <path class="st0" d="M274.39,115.52c-.2,0-.3,0-.5,0-3.65-.02-6.4-1.53-8.28-4.58-1.03-2.07-1.58-4.8-1.63-8.2-.05-3.07.05-6.07.3-9.01.25-2.93.47-5.92.5-8.76.03-3.44.17-7.24,1.23-10.05,1.21-3.23,4.25-5.14,7.73-5.12h.18c2.07.01,3.66.43,4.74,1.25,1.08.81,1.82,1.83,2.22,3.04.4,1.21.57,3.25.5,6.1-.03,1.54-.11,3.04-.23,4.52-.12,1.48-.23,3.02-.23,4.52,0,2.85.33,5.93.8,9.06.47,3.14.67,6.02.6,8.65-.06,2.52-.64,4.59-1.7,6.21-1.07,1.62-3.14,2.4-6.24,2.37ZM273.29,67.73c-2.02,0-3.97-.71-5.44-2.13-1.18-1.14-1.78-2.64-1.8-4.18,0-.82.17-1.65.54-2.47.68-1.27,1.59-2.19,2.75-2.77,1.16-.58,2.4-.87,3.72-.86,1.82,0,3.5.56,5.02,1.65,1.52,1.09,2.25,2.63,2.22,4.6-.03,1.37-.51,2.59-1.46,3.68-1.51,1.68-3.35,2.5-5.56,2.49Z"/>
    <path class="st0" d="M317.48,117.78c-4.95-.44-7.97-2.24-8.92-5.14-.65-1.97-.88-4.75-.59-8.3.08-1.04.2-2.1.35-3.19.15-1.09.32-2.83.51-5.24.31-3.82.53-7.07.51-9.61,0-1.14-.22-2.03-.6-2.61-.37-.58-.77-.88-1.18-.92-.48-.04-.91.19-1.31.68-.4.49-.64,1.29-.71,2.38-.51,7.77-.36,14.13.25,18.9.19,1.22.24,2.47.14,3.72-.09,1.15-.4,2.25-.93,3.31-.91,1.64-2.25,2.72-4.01,3.26-1.76.54-3.8.74-6.13.62-3.66-.2-6.31-1.35-7.7-3.47-1.13-1.72-1.63-4.14-1.53-7.05.03-1.04.22-3.37.65-6.89.35-2.87.63-5.79.73-8.7.01-1.38.02-2.07.03-3.45-.12-1.81-.14-3.65-.08-5.52.06-1.75.28-3.41.66-4.96.39-1.55,1.11-2.9,2.2-4.03,1.08-1.14,2.39-1.78,3.93-1.93.26.01.38.02.64.03,1.77.08,3.44,1.03,4.99,2.65,1.33,1.4,2.49,2.13,3.34,2.18.85.06,1.87-.42,3-1.11.99-.61,2.4-1.14,3.98-1.68,1.57-.53,3.59-.7,6.03-.48.85.08,1.73.22,2.64.41,4.99,1.14,8.05,3.23,9.18,6.15,1.12,2.92,1.46,6.1,1.04,9.52-.19,1.6-.29,2.4-.49,4-.46,3.76-.64,7.49-.58,11.2.02.14.03.2.05.34.25,2.19.24,4.37-.04,6.54-.25,1.96-.91,3.98-2.05,5.55-1.55,2.12-4.5,3.13-7.98,2.82Z"/>
    <path class="st0" d="M343.96,121.53c-2.42-.4-4.93-1.33-7.56-2.77-2.63-1.44-4.56-3.75-5.54-6.84-.7-2.19-.88-4.4-.61-6.47.35-2.72,1.46-5.13,3.36-7.23,1.9-2.09,4.49-3.69,7.73-4.67,3.96-1.19,8-1.46,11.86-.98.88.11,1.57.15,2.06.16.48,0,.76-.18.83-.56.04-.21,0-.45-.15-.69-.48-.7-1.46-1.18-2.93-1.44-1.77-.31-3.53-.24-5.29.19-1.13.26-2.26.58-3.4.96-1.86.76-3.78,1.22-5.77,1.38-.36-.02-.53-.03-.89-.04-1.11-.16-2.07-.57-2.87-1.23-1.18-.99-1.66-2.35-1.43-4.09.27-2.06,1.28-3.9,2.92-5.5,2.04-1.99,4.61-3.39,7.66-4.05,3.88-.84,7.77-.95,11.57-.28,6.28,1.1,11.07,3.92,14.25,8.34,1.75,2.61,2.2,5.79,1.4,9.54-.32,1.5-.72,2.9-1.18,4.2-.46,1.3-.79,2.44-1,3.4-.85,3.97-.64,7.6.57,10.89.8,1.97.96,3.98.5,6.01-.23,1.02-.72,1.96-1.46,2.83-.74.87-1.84,1.5-3.3,1.89-1.46.39-2.73.47-3.82.24-1.36-.28-2.82-1.08-4.39-2.4-.77-.71-1.51-1.19-2.14-1.34-.68-.16-1.53-.04-2.45.29-.91.33-2.48.51-4.7.57-1.08.03-2.36-.08-3.84-.32ZM347.14,109.72c.45.08.87,0,1.25-.2,1.55-.57,2.77-1.52,3.65-2.87.3-.39.5-.8.57-1.23.1-.54-.14-1-.72-1.38-.27-.08-.4-.12-.67-.2-.57-.1-1.22-.03-1.93.21-.72.24-1.46.66-2.23,1.25-.77.59-1.22,1.3-1.36,2.11-.06.38,0,.84.21,1.37.2.53.61.85,1.23.96Z"/>
  </g>
  <g>
    <path class="st1" d="M74.21,177.08c-9.98,5.48-10.68,29.37-.42,34.57,3.51,2.39,6.6,2.11,8.99-.84,13.77-13.91,34.43,7.31,20.94,22.48-11.94,13.63-29.37,17-45.67,8.15-8.01-4.36-14.19-10.96-18.55-19.53-4.22-8.71-6.32-17.71-6.18-26.84s2.25-18.13,6.32-26.7c4.07-8.71,9.98-15.32,17.42-19.95,7.87-4.92,16.3-6.74,25.15-5.2,8.85,1.41,16.58,6.04,23.05,13.77,4.5,5.48,5.34,11.1,2.53,17.14-2.11,4.64-5.62,7.45-10.4,8.71-5.2,1.26-9.7,0-13.63-4.08-2.95-3.51-6.04-4.07-9.56-1.69Z"/>
    <path class="st1" d="M182.13,156.84c6.75,8.85,9.98,20.94,9.84,36.11,0,15.88-3.51,28.67-10.4,38.08-6.89,9.41-17.14,14.19-31.06,14.19-14.05.14-24.45-4.5-31.06-13.91-6.61-9.41-9.98-21.78-10.12-37.24-.42-29.23,10.96-50.59,41.31-50.59,14.19,0,24.73,4.5,31.48,13.35ZM140.11,193.38c-.14,5.34.7,9.98,2.53,13.77,1.83,3.79,4.5,5.76,7.87,5.62,3.65,0,6.46-1.97,8.29-5.9,1.97-3.93,2.81-8.57,2.67-13.77-.42-10.12-4.22-18.83-10.82-18.97-6.6.14-10.54,8.99-10.54,19.25Z"/>
    <path class="st1" d="M237.21,177.08c-9.98,5.48-10.68,29.37-.42,34.57,3.51,2.39,6.6,2.11,8.99-.84,13.77-13.91,34.43,7.31,20.94,22.48-11.94,13.63-29.37,17-45.67,8.15-8.01-4.36-14.19-10.96-18.55-19.53-4.22-8.71-6.32-17.71-6.18-26.84s2.25-18.13,6.32-26.7c4.07-8.71,9.98-15.32,17.42-19.95,7.87-4.92,16.3-6.74,25.15-5.2,8.85,1.41,16.58,6.04,23.05,13.77,4.5,5.48,5.34,11.1,2.53,17.14-2.11,4.64-5.62,7.45-10.4,8.71-5.2,1.26-9.7,0-13.63-4.08-2.95-3.51-6.04-4.07-9.56-1.69Z"/>
    <path class="st1" d="M345.12,156.84c6.75,8.85,9.98,20.94,9.84,36.11,0,15.88-3.51,28.67-10.4,38.08s-17.14,14.19-31.06,14.19c-14.05.14-24.45-4.5-31.06-13.91-6.61-9.41-9.98-21.78-10.12-37.24-.42-29.23,10.96-50.59,41.31-50.59,14.19,0,24.73,4.5,31.48,13.35ZM303.11,193.38c-.14,5.34.7,9.98,2.53,13.77,1.83,3.79,4.5,5.76,7.87,5.62,3.65,0,6.46-1.97,8.29-5.9,1.97-3.93,2.81-8.57,2.67-13.77-.42-10.12-4.22-18.83-10.82-18.97-6.6.14-10.54,8.99-10.54,19.25Z"/>
    <path class="st1" d="M395.99,143.63c12.93-.42,22.76,6.46,28.81,17.14,2.95,5.34,5.48,11.95,7.31,19.67,3.79,15.6,4.92,31.62,4.92,51.43-.28,18.83-30.91,19.11-30.91.28l-17.43-.14c-.14,4.36-1.97,7.87-5.2,10.26-3.23,2.39-6.74,3.51-10.54,3.37-7.45-.14-14.9-5.62-15.04-14.47-.14-57.9,12.51-87.12,38.08-87.55ZM404.56,202.93c-1.26-11.94-3.65-19.95-7.17-24.31-3.51,4.92-5.76,12.93-7.03,24.17l14.19.14Z"/>
  </g>
  <path class="st1" d="M481.34,199.61c-.16,4.8-2.01,8.51-5.57,11.14-3.4,2.63-7.12,4.02-11.29,4.02s-7.74-1.39-11.14-4.18c-3.4-2.78-5.11-6.65-5.26-11.45-.16-15.32-.16-28.31.31-39.14.15-4.8,1.86-8.51,5.42-11.14,3.56-2.79,7.43-4.18,11.6-4.18s7.89,1.39,11.45,4.18c3.56,2.78,5.42,6.65,5.57,11.45.15,11.6-.31,24.6-1.08,39.3ZM450.4,246.64c-3.71-8.51-.77-15.47,7.12-19.96,8.82-4.49,17.33-2.32,21.66,4.49,2.32,3.87,2.63,8.05,1.24,12.53-1.39,4.49-4.18,7.74-8.05,9.9-8.82,5.11-17.48,2.78-21.97-6.96Z"/>
  <circle class="st3" cx="60.33" cy="341.15" r="27.02"/>
  <circle class="st3" cx="447.01" cy="335.7" r="27.02"/>
  <path class="st2" d="M445.48,502.38c-13.9,6.18-29.29,9.62-45.48,9.62H112c-14.88,0-29.08-2.9-42.06-8.17-4.27-17.36-10.4-59.56,16.75-98.97,10.09-14.64,21.42-24.32,33.97-30.81,3.25-1.68,6.58-3.15,9.99-4.43.42-.16.84-.31,1.27-.46,1.69-.61,3.4-1.18,5.12-1.71,1.7-.52,3.42-1,5.16-1.44s3.5-.85,5.27-1.22c.57-.12,1.13-.24,1.7-.35.07-.01.13-.03.18-.04.57-.11,1.13-.22,1.7-.32,1.2-.23,2.41-.44,3.62-.64,1.22-.19,2.45-.38,3.68-.56.61-.08,1.23-.17,1.85-.25s1.25-.16,1.87-.24c1.88-.24,3.77-.44,5.68-.63,1.27-.13,2.55-.25,3.84-.35.97-.08,1.94-.16,2.92-.23.97-.08,1.95-.15,2.94-.22,1.31-.09,2.64-.17,3.97-.25,1.32-.08,2.66-.16,4.01-.23,3.13-.16,6.3-.3,9.52-.44,1.9-.08,3.81-.15,5.74-.23,3.86-.15,7.77-.3,11.75-.48,1.98-.08,3.99-.18,6-.28,1.58-.07,3.17-.15,4.77-.25,1.57-.08,3.13-.18,4.71-.28,1.58-.1,3.17-.2,4.77-.32,3.18-.22,6.39-.49,9.63-.79,1.41-.13,2.82-.27,4.23-.42,2.05-.22,4.14-.42,6.27-.61,3.08-.29,6.24-.56,9.46-.79.18-.02.37-.03.56-.05,5.47-.4,11.12-.74,16.88-.97,1.16-.05,2.32-.09,3.49-.14h.08c3.45-.13,6.94-.22,10.46-.27h.58c.99-.02,1.99-.03,2.99-.04h.66c2.97-.03,5.96-.02,8.96.02h.11c2.83.03,5.67.1,8.52.19.96.03,1.92.06,2.88.1l8.63.42c.96.05,1.92.11,2.87.18.95.06,1.9.13,2.84.2l3.61.28c.71.06,1.42.12,2.13.19,2.85.25,5.68.54,8.49.87.94.11,1.87.22,2.8.34.91.11,1.81.23,2.71.35l3.06.43c1.77.26,3.54.53,5.29.82,1.82.3,3.62.61,5.41.96.9.17,1.79.34,2.67.52,2.67.52,5.29,1.1,7.87,1.72,1.72.41,3.42.84,5.1,1.3.84.22,1.68.45,2.51.69.82.23,1.63.47,2.44.71l2.47.76c26.5,8.38,46.72,22.34,52.75,44.47,12.57,46.12,7.52,77.87,3.38,92.74Z"/>
  <path class="st4" d="M151.76,512s7.72-51.75,86.04-56.11c3.45-.19,5.71,27.79,9.44,27.79,2.2,0,5.67-28.04,7.77-27.98,82.53,2.67,94.16,56.3,94.16,56.3h-197.4Z"/>
  <path class="st1" d="M142.56,399.68c4.84,5.67,13.78,5.1,17.86-1.15l16-24.49,28.55,22.86c5.19,4.15,12.83,2.89,16.41-2.71l16.64-26.03,19.42,26.38c4.35,5.92,13.13,6.1,17.73.37l21.44-26.74,15.17,23.51c4.41,6.83,14.4,6.82,18.8-.02l15.1-23.5,14.44,21.27c4.95,7.29,16,6.26,19.51-1.83l9.73-22.44h0c-42.28-13.39-100.57-12.6-142.8-8.18-50.02,5.23-92.28-.32-125.89,17.06l21.9,25.63Z"/>
</svg>